<svg id="icons" xmlns="http://www.w3.org/2000/svg" viewBox="0 0 128 128">
  <title>ArcGIS_Pro_Glyph_128</title>
  <path d="M64.00018,26.9A39.1,39.1,0,1,0,103.1,66,39.10007,39.10007,0,0,0,64.00018,26.9Zm0,69.18647a30.80883,30.80883,0,0,1-20.61694-7.8798,23.05428,23.05428,0,0,1,3.01782-8.34522c1.66475-2.75466-.60552-5.14607-3.14823-6.41743S34.55789,70.52193,33.189,67.86624s2.23232-4.57975,4.92685-6.1c2.69454-1.52-.43064-5.00241,1.62183-6.77482,2.88893-2.49447,4.3529-1.76053,5.5526-5.15832.8063-2.2834-.72649-4.47989-2.53987-7.3564,8.41243-8.142,16.80276-9.06638,21.14952-8.54648C79.38888,35.78285,70.67929,41.169,71.815,44.075s5.61493,3.65589,5.19705,8.11329c-.27244,2.906-5.89138,1.66845-7.62423,1.66845-2.96378,0-10.059,5.21946-9.60318,9.85526.55373,5.62922,2.30743,6.20738,5.95513,6.2833,3.648.07609,6.38373.9881,5.16771,3.95187a16.20227,16.20227,0,0,0-.56367,10.53714c1.0642,4.17979,4.18015,2.128,5.85164.304,1.6722-1.82384,6.61182-6.91565,6.53591-10.10751-.07627-3.19187,2.65977-4.58387,4.33162-7.24382,1.67184-2.65977-.09756-7.55847-.09756-7.55847,3.08758,0,8.37351.27988,8.1628,5.07974C94.37939,82.02274,81.08081,96.08647,64.00018,96.08647Z" fill="#006fde"/>
</svg>
